<svg id="Capa_1" enable-background="new 0 0 512 512" height="512" viewBox="0 0 512 512" width="512" xmlns="http://www.w3.org/2000/svg" xmlns:xlink="http://www.w3.org/1999/xlink"><linearGradient id="SVGID_1_" gradientUnits="userSpaceOnUse" x1="0" x2="512" y1="256" y2="256"><stop offset="0" stop-color="#d2deff" stop-opacity="0"/><stop offset="1" stop-color="#b7c5ff"/></linearGradient><g><g><path d="m507.973 225.49c-11.86-49.413-77.96-66.822-117.683-64.764-53.009 2.746-77.026-13.971-65.41-68.016 6.637-30.882 13.319-51.892-34.515-68.18-41.311-14.065-174.561-29.332-202.311 18.234-13.542 23.213 36.303 44.386 12.78 75.75-16.594 22.126-65.768 5.766-92.34 39.917-18.857 24.235-6.975 63.94 42.258 85.004 41.947 17.946 103.652 28.294 114.951 80.037 5.664 25.936-23.241 62.279-8.744 100.454 11.203 29.502 44.939 42.523 89.488-.804 87.902-85.491 69.312 36.572 82.65 61.554 15.28 28.621 68.148 16.908 91.907-7.039 64.961-65.476 104.102-180.762 86.969-252.147z" fill="url(#SVGID_1_)"/></g><g><g><path d="m423.567 248.298h-1.147-91.817v-157.928c0-5.523-4.477-10-10-10h-267.17c-5.523 0-10 4.477-10 10v345.26c0 33.137 26.863 60 60 60h305.134c33.137 0 60-26.863 60-60v-142.332c0-24.852-20.147-45-45-45z" fill="#2626bc" opacity=".1"/><g><g><g><path d="m423.567 224.298h-206.414v99.543 48.245 99.543h191.414c33.137 0 60-26.863 60-60v-142.331c0-24.852-20.147-45-45-45z" fill="#fff"/><path d="m367.42 340.271c5.523 0 10-4.477 10-10v-60.973c0-24.85 20.15-45 45-45h-308.51c-24.853 0-45 20.147-45 45v60.973c0 5.523 4.477 10 10 10z" fill="#6583fe"/></g><g><path d="m390.603 471.63h-287.17c-33.137 0-60-26.863-60-60v-345.26c0-5.523 4.477-10 10-10h267.17c5.523 0 10 4.477 10 10v345.26c0 33.14 26.86 60 60 60z" fill="#6583fe"/></g><path d="m299.893 319.842h-224.958c-2.761 0-5-2.239-5-5v-159.61c0-2.761 2.239-5 5-5h224.958c2.761 0 5 2.239 5 5v159.61c0 2.761-2.238 5-5 5z" fill="#fff"/><g><g fill="#6583fe"><path d="m124.669 319.842h-28.884v-54.392c0-2.806 2.275-5.082 5.081-5.082h18.721c2.806 0 5.082 2.275 5.082 5.082z"/><path d="m164.471 319.842h-28.884v-23.903c0-2.806 2.275-5.082 5.081-5.082h18.721c2.806 0 5.081 2.275 5.081 5.082v23.903z"/><path d="m204.272 319.842h-28.884v-72.898c0-2.806 2.275-5.081 5.081-5.081h18.721c2.806 0 5.082 2.275 5.082 5.081z"/><path d="m283.876 319.842h-28.884v-92.775c0-2.806 2.275-5.081 5.081-5.081h18.721c2.806 0 5.082 2.275 5.082 5.081z"/><path d="m244.074 319.842h-28.884v-114.328c0-2.806 2.275-5.081 5.082-5.081h18.721c2.806 0 5.081 2.275 5.081 5.081z"/></g></g><path d="m218.23 382.128h-143.295c-2.761 0-5-2.239-5-5v-27.691c0-2.761 2.239-5 5-5h143.295c2.761 0 5 2.239 5 5v27.691c0 2.761-2.239 5-5 5z" fill="#fff"/><g><circle cx="254.32" cy="150.231" fill="#fff" r="30.926"/><g><path d="m269.844 146.799-13.567-13.798c-1.075-1.093-2.837-1.093-3.913 0l-13.567 13.798c-1.706 1.735-.477 4.667 1.956 4.667h6.595v14.073c0 1.515 1.228 2.744 2.744 2.744h8.457c1.515 0 2.744-1.228 2.744-2.744v-14.073h6.595c2.433 0 3.662-2.932 1.956-4.667z" fill="#6583fe"/></g></g><g fill="#6583fe"><path d="m96.909 181.69 10.532-12.996c2.001-2.469 5.768-2.469 7.769 0l10.532 12.996c2.649 3.269.323 8.148-3.884 8.148h-21.064c-4.207 0-6.534-4.88-3.885-8.148z"/><circle cx="158.159" cy="184.838" r="5"/><circle cx="141.898" cy="184.838" r="5"/></g></g><g fill="#fff"><path d="m199.23 102.292h-9.014c-.155 0-.282-.127-.282-.282v-4.266c0-.155.126-.282.282-.282h14.296c2.761 0 5-2.238 5-5s-2.239-5-5-5h-14.296c-5.669 0-10.282 4.612-10.282 10.282v4.266c0 5.67 4.612 10.282 10.282 10.282h9.014c.156 0 .282.127.282.282v4.266c0 .155-.126.282-.282.282h-14.295c-2.761 0-5 2.238-5 5s2.239 5 5 5h14.295c5.669 0 10.282-4.612 10.282-10.282v-4.266c0-5.67-4.613-10.282-10.282-10.282z"/><path d="m132.827 97.462c2.761 0 5-2.238 5-5s-2.239-5-5-5h-19.577c-2.761 0-5 2.238-5 5v29.66c0 2.762 2.239 5 5 5h19.578c2.761 0 5-2.238 5-5s-2.239-5-5-5h-14.578v-4.83h7.2c2.761 0 5-2.238 5-5s-2.239-5-5-5h-7.2v-4.83z"/><path d="m168.67 87.462c-2.761 0-5 2.238-5 5v13.009l-.616-.934c-.925-1.401-2.493-2.245-4.173-2.245s-3.248.844-4.173 2.246l-.616.933v-13.009c0-2.762-2.239-5-5-5s-5 2.238-5 5v29.66c0 2.208 1.448 4.154 3.562 4.789.476.143.959.211 1.438.211 1.648 0 3.231-.817 4.173-2.246l5.616-8.508 5.616 8.509c1.216 1.842 3.494 2.668 5.611 2.034 2.114-.635 3.562-2.581 3.562-4.789v-29.66c0-2.762-2.239-5-5-5z"/><path d="m96.985 87.462c-2.761 0-5 2.238-5 5v13.009l-10.404-15.764c-1.215-1.842-3.496-2.668-5.611-2.034-2.114.635-3.562 2.581-3.562 4.789v29.66c0 2.762 2.239 5 5 5s5-2.238 5-5v-13.009l10.405 15.764c.942 1.428 2.524 2.245 4.173 2.245.478 0 .962-.068 1.438-.211 2.114-.635 3.562-2.581 3.562-4.789v-29.66c-.001-2.762-2.239-5-5.001-5z"/></g><g fill="#2626bc"><path d="m423.567 219.299c-.191-.022-65.118 0-65.118 0-2.761 0-5 2.238-5 5s2.239 5 5 5h34.002c-12.155 9.13-20.031 23.662-20.031 40v60.973c0 2.757-2.243 5-5 5h-31.816v-268.902c0-8.271-6.729-15-15-15h-267.171c-8.271 0-15 6.729-15 15v345.26c0 35.841 29.159 65 65 65h305.134c35.841 0 65-29.159 65-65v-142.331c0-27.57-22.43-50-50-50zm-320.134 247.331c-30.327 0-55-24.673-55-55v-345.26c0-2.757 2.243-5 5-5h267.17c2.757 0 5 2.243 5 5v345.26c0 23.129 12.145 43.477 30.391 55zm360.134-55c0 30.327-24.673 55-55 55h-17.964c-30.327 0-55-24.673-55-55v-66.358h31.816c8.271 0 15-6.729 15-15v-60.973c0-22.056 17.944-40 40-40h1.147c22.056 0 40 17.944 40 40v142.331z"/><path d="m298.419 349.437c0-2.761-2.239-5-5-5h-51.087c-2.761 0-5 2.239-5 5s2.239 5 5 5h51.087c2.762 0 5-2.239 5-5z"/><path d="m242.333 364.818c-2.761 0-5 2.239-5 5s2.239 5 5 5h35.087c2.761 0 5-2.239 5-5s-2.239-5-5-5z"/><path d="m136.744 404.68c0-2.761-2.239-5-5-5h-58.309c-2.761 0-5 2.239-5 5s2.239 5 5 5h58.309c2.761 0 5-2.238 5-5z"/><path d="m171.744 420.062h-92.309c-2.761 0-5 2.239-5 5s2.239 5 5 5h92.309c2.761 0 5-2.239 5-5s-2.239-5-5-5z"/><path d="m295.919 399.68h-94.335c-2.761 0-5 2.239-5 5s2.239 5 5 5h94.335c2.761 0 5-2.239 5-5s-2.238-5-5-5z"/><path d="m295.919 420.062h-94.335c-2.761 0-5 2.239-5 5s2.239 5 5 5h94.335c2.761 0 5-2.239 5-5s-2.238-5-5-5z"/><path d="m254.32 186.157c19.81 0 35.926-16.116 35.926-35.926s-16.116-35.926-35.926-35.926-35.926 16.116-35.926 35.926 16.116 35.926 35.926 35.926zm0-61.851c14.295 0 25.926 11.63 25.926 25.926s-11.63 25.926-25.926 25.926-25.926-11.63-25.926-25.926 11.63-25.926 25.926-25.926z"/><path d="m253.752 101.487h26.162c2.761 0 5-2.239 5-5s-2.239-5-5-5h-26.162c-2.761 0-5 2.239-5 5s2.239 5 5 5z"/><circle cx="295.852" cy="88.436" r="5"/></g></g></g><g><path d="m375.204 146.908c-1.28 0-2.559-.488-3.536-1.465l-4.964-4.964-4.964 4.964c-1.953 1.953-5.118 1.953-7.071 0-1.953-1.952-1.953-5.118 0-7.07l8.5-8.5c1.953-1.953 5.118-1.953 7.071 0l8.5 8.5c1.953 1.952 1.953 5.118 0 7.07-.977.977-2.256 1.465-3.536 1.465z" fill="#6583fe"/></g><g><path d="m477.067 485.13c-1.28 0-2.559-.488-3.536-1.465l-4.964-4.964-4.964 4.964c-1.953 1.953-5.118 1.953-7.071 0-1.953-1.952-1.953-5.118 0-7.07l8.5-8.5c1.953-1.953 5.118-1.953 7.071 0l8.5 8.5c1.953 1.952 1.953 5.118 0 7.07-.977.977-2.256 1.465-3.536 1.465z" fill="#6583fe"/></g><g><path d="m451.567 203.935c-1.28 0-2.559-.488-3.536-1.465l-4.964-4.964-4.964 4.964c-1.953 1.953-5.118 1.953-7.071 0-1.953-1.952-1.953-5.118 0-7.07l8.5-8.5c1.953-1.953 5.118-1.953 7.071 0l8.5 8.5c1.953 1.952 1.953 5.118 0 7.07-.977.976-2.256 1.465-3.536 1.465z" fill="#6583fe"/></g><g><path d="m66.422 32.631c-1.28 0-2.559-.488-3.536-1.465l-4.964-4.964-4.964 4.964c-1.953 1.953-5.118 1.953-7.071 0-1.953-1.952-1.953-5.118 0-7.07l8.5-8.5c1.953-1.953 5.118-1.953 7.071 0l8.5 8.5c1.953 1.952 1.953 5.118 0 7.07-.977.977-2.256 1.465-3.536 1.465z" fill="#6583fe"/></g><g><g><g><path d="m378.295 93.342c-.844 0-1.7-.214-2.485-.665l-.099-.057c-2.395-1.375-3.221-4.432-1.846-6.826s4.432-3.222 6.826-1.846l.099.057c2.395 1.375 3.221 4.432 1.846 6.826-.924 1.609-2.608 2.511-4.341 2.511z" fill="#6583fe"/></g><g><path d="m403.197 107.719c-.844 0-1.7-.214-2.485-.665l-.099-.057c-2.395-1.375-3.221-4.432-1.846-6.826 1.375-2.393 4.431-3.223 6.826-1.846l.099.057c2.395 1.375 3.221 4.432 1.846 6.826-.925 1.609-2.609 2.511-4.341 2.511z" fill="#6583fe"/></g></g><g><g><path d="m378.295 93.342c-.844 0-1.7-.214-2.485-.665l-.099-.057c-2.395-1.375-3.221-4.432-1.846-6.826s4.432-3.222 6.826-1.846l.099.057c2.395 1.375 3.221 4.432 1.846 6.826-.924 1.609-2.608 2.511-4.341 2.511z" fill="#6583fe"/></g><g><path d="m403.197 107.719c-.844 0-1.7-.214-2.485-.665l-.099-.057c-2.395-1.375-3.221-4.432-1.846-6.826 1.375-2.393 4.431-3.223 6.826-1.846l.099.057c2.395 1.375 3.221 4.432 1.846 6.826-.925 1.609-2.609 2.511-4.341 2.511z" fill="#6583fe"/></g></g><g><g><path d="m403.108 93.342c-1.732 0-3.417-.901-4.341-2.511-1.375-2.395-.549-5.451 1.846-6.826l.099-.057c2.395-1.374 5.451-.548 6.826 1.846 1.375 2.395.549 5.451-1.846 6.826l-.099.057c-.785.45-1.641.665-2.485.665z" fill="#6583fe"/></g><g><path d="m378.207 107.719c-1.732 0-3.417-.901-4.341-2.511-1.375-2.395-.549-5.451 1.846-6.826l.099-.057c2.394-1.375 5.451-.548 6.826 1.846 1.375 2.395.549 5.451-1.846 6.826l-.099.057c-.785.45-1.641.665-2.485.665z" fill="#6583fe"/></g></g><g><g><path d="m403.108 93.342c-1.732 0-3.417-.901-4.341-2.511-1.375-2.395-.549-5.451 1.846-6.826l.099-.057c2.395-1.374 5.451-.548 6.826 1.846 1.375 2.395.549 5.451-1.846 6.826l-.099.057c-.785.45-1.641.665-2.485.665z" fill="#6583fe"/></g><g><path d="m378.207 107.719c-1.732 0-3.417-.901-4.341-2.511-1.375-2.395-.549-5.451 1.846-6.826l.099-.057c2.394-1.375 5.451-.548 6.826 1.846 1.375 2.395.549 5.451-1.846 6.826l-.099.057c-.785.45-1.641.665-2.485.665z" fill="#6583fe"/></g></g><g><g><path d="m390.702 86.181c-2.761 0-5-2.238-5-5v-.113c0-2.762 2.239-5 5-5s5 2.238 5 5v.113c0 2.761-2.239 5-5 5z" fill="#6583fe"/></g><g><path d="m390.702 114.935c-2.761 0-5-2.238-5-5v-.113c0-2.762 2.239-5 5-5s5 2.238 5 5v.113c0 2.761-2.239 5-5 5z" fill="#6583fe"/></g></g></g></g></g></svg>