<svg id="Capa_1" enable-background="new 0 0 512 512" height="512" viewBox="0 0 512 512" width="512" xmlns="http://www.w3.org/2000/svg" xmlns:xlink="http://www.w3.org/1999/xlink"><linearGradient id="SVGID_1_" gradientUnits="userSpaceOnUse" x1="0" x2="512" y1="256" y2="256"><stop offset="0" stop-color="#d2deff" stop-opacity="0"/><stop offset="1" stop-color="#b7c5ff"/></linearGradient><g><g><path d="m507.973 225.49c-11.86-49.413-77.96-66.822-117.683-64.764-53.009 2.746-77.026-13.971-65.41-68.016 6.637-30.882 13.319-51.892-34.515-68.18-41.311-14.065-174.561-29.332-202.311 18.234-13.542 23.213 36.303 44.386 12.78 75.75-16.594 22.126-65.768 5.766-92.34 39.917-18.857 24.235-6.975 63.94 42.258 85.004 41.947 17.946 103.652 28.294 114.951 80.037 5.664 25.936-23.241 62.279-8.744 100.454 11.203 29.502 44.939 42.523 89.488-.804 87.902-85.491 69.312 36.572 82.65 61.554 15.28 28.621 68.148 16.908 91.907-7.039 64.961-65.476 104.102-180.762 86.969-252.147z" fill="url(#SVGID_1_)"/></g><g><g><g><g fill="#2626bc" opacity=".1"><g><path d="m118.133 81.093c-1.125-1.584-2.948-2.526-4.892-2.526h-59.878c-3.314 0-6 2.686-6 6v27.421c0 3.314 2.686 6 6 6h59.879c1.943 0 3.766-.941 4.892-2.526l9.738-13.711c1.478-2.081 1.478-4.868 0-6.949z"/><path d="m239.155 93.278h-11.598c-2.762 0-5 2.239-5 5s2.238 5 5 5h11.598c2.762 0 5-2.239 5-5s-2.238-5-5-5z"/><path d="m201.482 93.278h-11.597c-2.762 0-5 2.239-5 5s2.238 5 5 5h11.597c2.762 0 5-2.239 5-5s-2.238-5-5-5z"/><path d="m163.81 93.278h-11.598c-2.762 0-5 2.239-5 5s2.238 5 5 5h11.598c2.762 0 5-2.239 5-5s-2.238-5-5-5z"/><path d="m277.391 93.278h-11.598c-2.762 0-5 2.239-5 5s2.238 5 5 5h11.598c2.762 0 5-2.239 5-5s-2.238-5-5-5z"/><path d="m48.757 152.09h14.582c2.762 0 5-2.239 5-5s-2.238-5-5-5h-14.582c-2.762 0-5 2.239-5 5s2.238 5 5 5z"/><path d="m85.339 162.472h-36.582c-2.762 0-5 2.239-5 5s2.238 5 5 5h36.582c2.762 0 5-2.239 5-5s-2.239-5-5-5z"/><path d="m85.339 182.854h-36.582c-2.762 0-5 2.239-5 5s2.238 5 5 5h36.582c2.762 0 5-2.239 5-5s-2.239-5-5-5z"/></g><path d="m354.223 331.11h-49.654l3.71-3.71c7.656-7.656 10.73-18.792 8.003-29.267-8.988-34.487-4.51-58.061-1.621-67.89 41.103-64.22 41.221-104.859 39.487-118.979-.425-3.463-3.16-6.198-6.623-6.623-14.12-1.733-54.759-1.616-118.979 39.487-9.83 2.889-33.404 7.367-67.89-1.621-10.475-2.727-21.611.346-29.267 8.003l-23.802 23.802c-2.987 2.987-2.992 7.829 0 10.822l31.62 31.62c-.718.699-1.429 1.383-2.151 2.091-3.032 2.976-3.046 7.861-.042 10.865l5.104 5.104c-5.393 7.544-11.761 17.435-16.446 27.748-1.318 2.902-.692 6.32 1.563 8.574l14.728 14.728c2.254 2.254 5.671 2.881 8.574 1.563 10.312-4.685 20.204-11.053 27.748-16.446l9.526 9.526c-5.393 7.544-11.761 17.435-16.446 27.748-1.318 2.902-.692 6.319 1.563 8.573l7.138 7.138v155.024c0 5.47 4.43 9.9 9.9 9.9h60.15c5.47 0 9.9-4.43 9.9-9.9v-141.429l13.642 13.641c2.895 2.895 7.516 2.975 10.518.274v127.514c0 5.47 4.43 9.9 9.9 9.9h60.15c5.47 0 9.9-4.43 9.9-9.9v-137.98c-.003-5.47-4.433-9.9-9.903-9.9z"/><path d="m458.341 109.105h-60.149c-5.469 0-9.902 4.433-9.902 9.902v359.986c0 5.469 4.433 9.902 9.902 9.902h60.149c5.469 0 9.902-4.433 9.902-9.902v-359.986c0-5.469-4.433-9.902-9.902-9.902z"/><path d="m145.994 399.105h-60.148c-5.469 0-9.902 4.433-9.902 9.902v69.986c0 5.469 4.433 9.902 9.902 9.902h60.149c5.469 0 9.902-4.433 9.902-9.902v-69.986c-.001-5.469-4.434-9.902-9.903-9.902z"/></g><g><g><g><path d="m260.013 277.01v177.98c0 5.47-4.43 9.9-9.9 9.9h-60.15c-5.47 0-9.9-4.43-9.9-9.9v-177.98c0-5.47 4.43-9.9 9.9-9.9h60.15c5.47 0 9.9 4.43 9.9 9.9z" fill="#fff"/><path d="m210.063 297.1h19.95v137.79h-19.95z" fill="#6583fe"/></g><g><path d="m364.123 317.01v137.98c0 5.47-4.43 9.9-9.9 9.9h-60.15c-5.47 0-9.9-4.43-9.9-9.9v-137.98c0-5.47 4.43-9.9 9.9-9.9h60.15c5.47 0 9.9 4.43 9.9 9.9z" fill="#fff"/><path d="m275.256 376.023h97.79v19.953h-97.79z" fill="#6583fe" transform="matrix(0 1 -1 0 710.151 61.849)"/></g><g><path d="m458.341 464.895h-60.149c-5.469 0-9.902-4.433-9.902-9.902v-359.986c0-5.469 4.433-9.902 9.902-9.902h60.149c5.469 0 9.902 4.433 9.902 9.902v359.986c0 5.469-4.433 9.902-9.902 9.902z" fill="#fff"/><path d="m268.372 265.023h319.79v19.953h-319.79z" fill="#6583fe" transform="matrix(0 1 -1 0 703.267 -153.267)"/></g></g><g><path d="m145.994 464.895h-60.148c-5.469 0-9.902-4.433-9.902-9.902v-69.986c0-5.469 4.433-9.902 9.902-9.902h60.149c5.469 0 9.902 4.433 9.902 9.902v69.986c-.001 5.469-4.434 9.902-9.903 9.902z" fill="#6583fe"/><path d="m101.025 410.023h29.79v19.953h-29.79z" fill="#fff" transform="matrix(0 1 -1 0 535.92 304.08)"/></g></g><g><g><g fill="#fff"><path d="m150.535 263.426c13.968-6.345 27.177-15.786 34.804-21.696 3.638-2.82 3.966-8.195.711-11.45l-27.233-27.233c-3.255-3.255-8.63-2.927-11.45.711-5.91 7.627-15.351 20.836-21.696 34.804-1.318 2.902-.692 6.32 1.563 8.574l14.728 14.728c2.254 2.253 5.671 2.88 8.573 1.562z"/><path d="m196.226 309.117c13.968-6.345 27.177-15.786 34.804-21.696 3.638-2.82 3.966-8.195.711-11.45l-27.233-27.233c-3.255-3.255-8.63-2.927-11.45.711-5.91 7.627-15.351 20.836-21.696 34.804-1.318 2.902-.692 6.319 1.563 8.574l14.728 14.728c2.254 2.254 5.671 2.88 8.573 1.562z"/></g><g fill="#6583fe"><path d="m130.995 228.15c-1.902 3.37-3.713 6.866-5.324 10.412-1.318 2.902-.692 6.32 1.563 8.574l14.728 14.728c2.254 2.254 5.671 2.881 8.574 1.563 3.546-1.611 7.042-3.422 10.412-5.324z"/><path d="m176.687 273.841c-1.902 3.37-3.713 6.866-5.324 10.412-1.318 2.902-.692 6.32 1.563 8.574l14.728 14.728c2.254 2.254 5.671 2.881 8.574 1.563 3.546-1.611 7.042-3.422 10.412-5.324z"/></g></g><g><path d="m308.279 303.4-23.802 23.802c-2.987 2.987-7.829 2.992-10.822 0l-41.653-41.653 84.463-84.463s-12.272 26.665-.184 73.046c2.728 10.477-.346 21.612-8.002 29.268z" fill="#6583fe"/><path d="m272.659 303.244-11.482 11.482-29.175-29.175 16.893-16.893 23.764 23.764c2.989 2.988 2.989 7.833 0 10.822z" fill="#fff"/><path d="m233.701 118.323-84.463 84.463-41.653-41.653c-2.992-2.992-2.987-7.835 0-10.822l23.802-23.802c7.656-7.656 18.792-10.73 29.267-8.003 46.383 12.089 73.047-.183 73.047-.183z" fill="#6583fe"/><g><path d="m166.131 185.893-16.893 16.893-29.175-29.175 11.482-11.482c2.988-2.988 7.833-2.988 10.822 0z" fill="#fff"/></g></g><g><path d="m347.525 80.64c-19.956-2.45-92.863-1.228-210.47 114.204-3.032 2.976-3.046 7.861-.042 10.865l92.066 92.066c3.004 3.004 7.889 2.99 10.865-.042 115.432-117.606 116.653-190.514 114.204-210.47-.425-3.462-3.16-6.198-6.623-6.623z" fill="#fff"/><g><path d="m148.948 183.429c-3.914 3.678-7.873 7.469-11.893 11.415-3.032 2.976-3.047 7.861-.042 10.865l92.066 92.066c3.004 3.004 7.889 2.99 10.865-.042 3.943-4.017 7.73-7.973 11.405-11.883-34.188-34.085-68.389-68.158-102.401-102.421z" fill="#6583fe"/></g><g><path d="m224.068 222.242c11.647-11.653 37.622-37.626 45.353-45.328-3.927-3.897-7.852-7.796-11.754-11.718l-45.323 45.323c-1.953 1.953-1.953 5.118 0 7.071l4.652 4.652c1.953 1.953 5.119 1.953 7.072 0z" fill="#6583fe"/></g></g><circle cx="278.751" cy="156.037" fill="#6583fe" r="38.508"/><path d="m352.837 116.732c-8.847-.168-17.645-3.631-24.397-10.383-6.753-6.753-10.216-15.551-10.383-24.397 13.938-2.402 23.819-2.002 29.467-1.309 3.463.422 6.201 3.16 6.623 6.623.692 5.647 1.093 15.528-1.31 29.466z" fill="#6583fe"/><path d="m113.241 93.989h-59.878c-3.314 0-6-2.686-6-6v-27.422c0-3.314 2.686-6 6-6h59.879c1.943 0 3.766.941 4.892 2.526l9.738 13.711c1.478 2.081 1.478 4.868 0 6.949l-9.738 13.711c-1.126 1.584-2.949 2.525-4.893 2.525z" fill="#fff"/></g><g fill="#2626bc"><path d="m354.23 302.11h-38.399c5.874-8.443 7.912-19.161 5.288-29.241-8.6-33.008-4.348-55.644-1.857-64.494 11.058-17.346 19.952-34.239 26.62-50.61 14.681-36.042 14.59-60.023 13.229-71.112-.708-5.756-5.223-10.27-10.978-10.976-8.547-1.049-26.933-1.527-54.083 7.06-2.633.833-4.092 3.642-3.26 6.275.834 2.632 3.637 4.092 6.275 3.259 25.347-8.015 42.109-7.62 49.85-6.668 1.189.146 2.123 1.08 2.27 2.269 2.34 19.063 1.119 90.283-112.81 206.358-.668.681-1.458.785-1.869.787-.703-.044-1.387-.273-1.893-.778l-92.065-92.065c-.506-.505-.782-1.178-.778-1.894.002-.411.106-1.201.786-1.868 45.846-44.998 89.615-77.245 130.094-95.845 2.509-1.153 3.608-4.122 2.455-6.631-1.152-2.508-4.12-3.607-6.631-2.456-13.041 5.993-26.396 13.35-40.028 22.039-8.828 2.49-31.481 6.761-64.526-1.848-12.126-3.159-25.182.408-34.065 9.303l-23.8 23.8c-2.396 2.396-3.714 5.578-3.711 8.96.003 3.377 1.322 6.551 3.71 8.93l28.163 28.172c-1.568 2.134-2.434 4.692-2.446 7.396-.017 3.404 1.3 6.604 3.707 9.012l2.141 2.141c-4.603 6.7-10.206 15.667-14.499 25.102-2.167 4.761-1.136 10.459 2.577 14.188l14.728 14.718c2.415 2.416 5.679 3.699 8.988 3.699 1.761 0 3.535-.364 5.2-1.113 9.446-4.301 18.408-9.901 25.102-14.499l3.596 3.596c-6.031 8.773-10.904 17.203-14.503 25.107-2.164 4.77-1.124 10.469 2.588 14.182l14.72 14.719c2.42 2.421 5.686 3.705 8.989 3.705 1.763 0 3.537-.366 5.199-1.12 7.896-3.595 16.325-8.468 25.1-14.5l2.14 2.14c2.393 2.393 5.568 3.708 8.95 3.708h.06c2.705-.012 5.264-.878 7.398-2.446l13.095 13.095c-.008.115-.034.224-.034.341v138.985c0 2.703-2.199 4.902-4.902 4.902h-60.148c-2.703 0-4.902-2.199-4.902-4.902v-125.241c0-2.761-2.238-5-5-5s-5 2.239-5 5v125.242c0 8.217 6.686 14.902 14.902 14.902h60.148c8.217 0 14.902-6.685 14.902-14.902v-129.36l5.109 5.109c2.469 2.461 5.709 3.691 8.948 3.691.034 0 .067-.005.101-.005v120.562c0 8.216 6.688 14.9 14.91 14.9h60.15c8.216 0 14.899-6.684 14.899-14.9v-137.98c0-8.216-6.684-14.9-14.9-14.9zm-243.886-146.383c-.001-.708.276-1.376.781-1.881l23.803-23.803c6.389-6.397 15.767-8.961 24.472-6.695 19.281 5.023 35.273 5.999 47.649 5.308-21.999 15.747-44.647 34.812-67.79 57.081l-28.14-28.149c-.5-.498-.775-1.159-.775-1.861zm38.143 103.144c-1.024.462-2.198.246-2.993-.548l-14.72-14.71c-.784-.788-1.007-1.986-.554-2.982 3.69-8.111 8.463-15.914 12.595-22.047l27.701 27.701c-6.126 4.127-13.923 8.895-22.029 12.586zm45.678 45.695c-1.013.462-2.183.243-2.979-.552l-14.72-14.719c-.796-.795-1.013-1.965-.555-2.973 3.097-6.804 7.42-14.342 12.603-22.04l27.684 27.684c-7.699 5.183-15.236 9.506-22.033 12.6zm83.021 19.099-28.134-28.134c22.293-23.165 41.351-45.796 57.081-67.764-.688 12.372.289 28.355 5.309 47.623 2.266 8.699-.3 18.077-6.696 24.474l-23.773 23.773c-.016.014-.031.03-.047.043-1.036 1.016-2.709 1.012-3.74-.015zm81.944 131.325c0 2.702-2.198 4.9-4.899 4.9h-60.15c-2.707 0-4.91-2.198-4.91-4.9v-125.408l17.472-17.472h47.588c2.701 0 4.899 2.198 4.899 4.9z"/><path d="m458.341 80.105h-60.148c-8.217 0-14.902 6.685-14.902 14.902v359.985c0 8.217 6.686 14.902 14.902 14.902h60.148c8.217 0 14.902-6.685 14.902-14.902v-359.985c0-8.217-6.685-14.902-14.902-14.902zm4.902 374.888c0 2.703-2.199 4.902-4.902 4.902h-60.148c-2.703 0-4.902-2.199-4.902-4.902v-359.986c0-2.703 2.199-4.902 4.902-4.902h60.148c2.703 0 4.902 2.199 4.902 4.902z"/><path d="m145.994 370.105h-60.148c-8.217 0-14.902 6.685-14.902 14.902v69.985c0 8.217 6.686 14.902 14.902 14.902h60.148c8.217 0 14.902-6.685 14.902-14.902v-69.985c0-8.217-6.685-14.902-14.902-14.902zm4.902 84.888c0 2.703-2.199 4.902-4.902 4.902h-60.148c-2.703 0-4.902-2.199-4.902-4.902v-69.985c0-2.703 2.199-4.902 4.902-4.902h60.148c2.703 0 4.902 2.199 4.902 4.902z"/><path d="m53.362 98.989h59.879c3.557 0 6.909-1.731 8.968-4.63l9.738-13.71c2.707-3.811 2.707-8.931 0-12.741l-9.737-13.709c-2.06-2.9-5.412-4.631-8.969-4.631h-59.879c-6.065 0-11 4.935-11 11v27.421c0 6.065 4.935 11 11 11zm-1-38.422c0-.551.448-1 1-1h59.879c.323 0 .628.157.815.421l9.738 13.711c.246.346.246.81 0 1.157l-9.738 13.711c-.188.263-.492.42-.815.42h-59.879c-.552 0-1-.449-1-1z"/><path d="m227.558 79.278h11.598c2.762 0 5-2.239 5-5s-2.238-5-5-5h-11.598c-2.762 0-5 2.239-5 5s2.238 5 5 5z"/><path d="m189.886 79.278h11.597c2.762 0 5-2.239 5-5s-2.238-5-5-5h-11.597c-2.762 0-5 2.239-5 5s2.238 5 5 5z"/><path d="m152.213 79.278h11.598c2.762 0 5-2.239 5-5s-2.238-5-5-5h-11.598c-2.762 0-5 2.239-5 5s2.238 5 5 5z"/><path d="m265.794 79.278h11.598c2.762 0 5-2.239 5-5s-2.238-5-5-5h-11.598c-2.762 0-5 2.239-5 5s2.238 5 5 5z"/><path d="m48.756 128.09h14.583c2.762 0 5-2.239 5-5s-2.238-5-5-5h-14.583c-2.762 0-5 2.239-5 5s2.238 5 5 5z"/><path d="m48.756 148.472h36.583c2.762 0 5-2.239 5-5s-2.238-5-5-5h-36.583c-2.762 0-5 2.239-5 5s2.238 5 5 5z"/><path d="m90.339 163.854c0-2.761-2.238-5-5-5h-36.583c-2.762 0-5 2.239-5 5s2.238 5 5 5h36.583c2.762 0 5-2.239 5-5z"/><path d="m105.758 208.229-32.359 32.359c-1.953 1.953-1.953 5.119 0 7.071.976.976 2.256 1.464 3.535 1.464s2.56-.488 3.535-1.464l32.359-32.359c1.953-1.953 1.953-5.119 0-7.071-1.951-1.953-5.119-1.953-7.07 0z"/><path d="m76.934 299.327c1.279 0 2.56-.488 3.535-1.464l32.359-32.359c1.953-1.953 1.953-5.119 0-7.071-1.951-1.952-5.119-1.952-7.07 0l-32.359 32.359c-1.953 1.953-1.953 5.119 0 7.071.975.975 2.255 1.464 3.535 1.464z"/><path d="m131.235 280.975-58.317 58.316c-1.953 1.953-1.953 5.119 0 7.071.976.976 2.256 1.464 3.535 1.464s2.56-.488 3.535-1.464l58.317-58.316c1.953-1.953 1.953-5.119 0-7.071-1.951-1.952-5.118-1.952-7.07 0z"/><path d="m121.453 339.792c.976.976 2.256 1.464 3.535 1.464s2.56-.488 3.535-1.464l22.588-22.588c1.953-1.953 1.953-5.119 0-7.071-1.951-1.952-5.119-1.952-7.07 0l-22.588 22.588c-1.953 1.953-1.953 5.119 0 7.071z"/></g><g opacity=".1"><g><path d="m76.934 273.124c-1.28 0-2.559-.488-3.536-1.464-1.953-1.953-1.953-5.119 0-7.071l32.359-32.359c1.953-1.952 5.118-1.952 7.071 0 1.953 1.953 1.953 5.119 0 7.071l-32.359 32.359c-.976.975-2.255 1.464-3.535 1.464z" fill="#2626bc"/></g><g><path d="m76.934 323.327c-1.28 0-2.559-.488-3.536-1.464-1.953-1.953-1.953-5.119 0-7.071l32.359-32.359c1.953-1.952 5.118-1.952 7.071 0 1.953 1.953 1.953 5.119 0 7.071l-32.359 32.359c-.976.975-2.255 1.464-3.535 1.464z" fill="#2626bc"/></g><g><path d="m76.454 371.827c-1.28 0-2.559-.488-3.536-1.464-1.953-1.953-1.953-5.119 0-7.071l58.316-58.316c1.953-1.952 5.118-1.952 7.071 0 1.953 1.953 1.953 5.119 0 7.071l-58.316 58.316c-.976.976-2.255 1.464-3.535 1.464z" fill="#2626bc"/></g><g><path d="m124.988 365.257c-1.28 0-2.559-.488-3.536-1.464-1.953-1.953-1.953-5.119 0-7.071l22.588-22.588c1.954-1.952 5.119-1.952 7.071 0 1.953 1.953 1.953 5.119 0 7.071l-22.588 22.588c-.976.976-2.256 1.464-3.535 1.464z" fill="#2626bc"/></g></g></g><path d="m285.374 173.057c4.816-4.816 4.816-12.653 0-17.469l-6.715-6.715c-.917-.917-.917-2.41 0-3.327s2.41-.917 3.327 0l10.805 10.805c1.953 1.953 5.119 1.952 7.071 0s1.953-5.118 0-7.071l-3.912-3.912.336-.336c1.952-1.952 1.953-5.118 0-7.071s-5.119-1.952-7.071 0l-.345.345c-4.83-4.637-12.526-4.587-17.282.169-4.816 4.816-4.816 12.652 0 17.469l6.715 6.715c.917.917.917 2.41 0 3.327s-2.41.917-3.327 0l-10.805-10.805c-1.953-1.953-5.119-1.952-7.071 0s-1.953 5.118 0 7.071l3.912 3.912-.336.336c-1.952 1.952-1.953 5.118 0 7.071s5.119 1.952 7.071 0l.345-.345c4.83 4.638 12.526 4.587 17.282-.169z" fill="#fff"/></g><g><path d="m51.642 398.635c-1.279 0-2.56-.488-3.535-1.464l-4.965-4.964-4.965 4.964c-1.951 1.952-5.119 1.952-7.07 0-1.953-1.953-1.953-5.119 0-7.071l8.5-8.5c1.951-1.952 5.119-1.952 7.07 0l8.5 8.5c1.953 1.953 1.953 5.119 0 7.071-.976.976-2.256 1.464-3.535 1.464z" fill="#6583fe"/></g><g><path d="m460.74 65.15c-1.279 0-2.56-.488-3.535-1.464l-4.965-4.964-4.965 4.964c-1.951 1.952-5.119 1.952-7.07 0-1.953-1.953-1.953-5.119 0-7.071l8.5-8.5c1.951-1.952 5.119-1.952 7.07 0l8.5 8.5c1.953 1.953 1.953 5.119 0 7.071-.975.976-2.255 1.464-3.535 1.464z" fill="#6583fe"/></g><g><path d="m359.198 234.957c-1.279 0-2.56-.488-3.535-1.464l-4.965-4.964-4.965 4.964c-1.951 1.952-5.119 1.952-7.07 0-1.953-1.953-1.953-5.119 0-7.071l8.5-8.5c1.951-1.952 5.119-1.952 7.07 0l8.5 8.5c1.953 1.953 1.953 5.119 0 7.071-.975.976-2.255 1.464-3.535 1.464z" fill="#6583fe"/></g><g><g><g><path d="m396.773 38.099c-.845 0-1.7-.214-2.485-.665l-.099-.057c-2.395-1.375-3.221-4.431-1.846-6.826 1.376-2.395 4.431-3.221 6.826-1.846l.099.057c2.395 1.375 3.221 4.431 1.846 6.826-.925 1.609-2.608 2.511-4.341 2.511z" fill="#6583fe"/></g><g><path d="m421.675 52.476c-.851 0-1.712-.217-2.501-.674l-.099-.057c-2.39-1.384-3.205-4.443-1.82-6.833 1.384-2.389 4.441-3.205 6.832-1.821l.099.057c2.39 1.384 3.205 4.443 1.82 6.833-.927 1.6-2.606 2.495-4.331 2.495z" fill="#6583fe"/></g></g><g><g><path d="m396.773 38.099c-.845 0-1.7-.214-2.485-.665l-.099-.057c-2.395-1.375-3.221-4.431-1.846-6.826 1.376-2.395 4.431-3.221 6.826-1.846l.099.057c2.395 1.375 3.221 4.431 1.846 6.826-.925 1.609-2.608 2.511-4.341 2.511z" fill="#6583fe"/></g><g><path d="m421.675 52.476c-.851 0-1.712-.217-2.501-.674l-.099-.057c-2.39-1.384-3.205-4.443-1.82-6.833 1.384-2.389 4.441-3.205 6.832-1.821l.099.057c2.39 1.384 3.205 4.443 1.82 6.833-.927 1.6-2.606 2.495-4.331 2.495z" fill="#6583fe"/></g></g><g><g><path d="m421.586 38.099c-1.732 0-3.416-.901-4.341-2.511-1.375-2.395-.549-5.451 1.846-6.826l.099-.057c2.397-1.376 5.451-.549 6.826 1.846s.549 5.451-1.846 6.826l-.099.057c-.785.45-1.641.665-2.485.665z" fill="#6583fe"/></g><g><path d="m396.685 52.476c-1.726 0-3.404-.895-4.331-2.495-1.385-2.389-.569-5.448 1.82-6.833l.099-.057c2.391-1.384 5.449-.568 6.832 1.821 1.385 2.389.569 5.448-1.82 6.833l-.099.057c-.79.456-1.651.674-2.501.674z" fill="#6583fe"/></g></g><g><g><path d="m421.586 38.099c-1.732 0-3.416-.901-4.341-2.511-1.375-2.395-.549-5.451 1.846-6.826l.099-.057c2.397-1.376 5.451-.549 6.826 1.846s.549 5.451-1.846 6.826l-.099.057c-.785.45-1.641.665-2.485.665z" fill="#6583fe"/></g><g><path d="m396.685 52.476c-1.726 0-3.404-.895-4.331-2.495-1.385-2.389-.569-5.448 1.82-6.833l.099-.057c2.391-1.384 5.449-.568 6.832 1.821 1.385 2.389.569 5.448-1.82 6.833l-.099.057c-.79.456-1.651.674-2.501.674z" fill="#6583fe"/></g></g><g><g><path d="m409.18 30.938c-2.762 0-5-2.239-5-5v-.114c0-2.761 2.238-5 5-5s5 2.239 5 5v.114c0 2.761-2.239 5-5 5z" fill="#6583fe"/></g><g><path d="m409.18 59.691c-2.762 0-5-2.239-5-5v-.114c0-2.761 2.238-5 5-5s5 2.239 5 5v.114c0 2.762-2.239 5-5 5z" fill="#6583fe"/></g></g></g><g><g><g><path d="m32.35 225.548c-.851 0-1.712-.217-2.501-.674l-.099-.057c-2.39-1.384-3.205-4.443-1.82-6.833 1.384-2.389 4.442-3.206 6.832-1.821l.099.057c2.39 1.384 3.205 4.443 1.82 6.833-.927 1.601-2.606 2.495-4.331 2.495z" fill="#6583fe"/></g><g><path d="m57.251 239.925c-.845 0-1.7-.214-2.485-.665l-.099-.057c-2.395-1.375-3.221-4.431-1.846-6.826 1.376-2.395 4.431-3.222 6.826-1.846l.099.057c2.395 1.375 3.221 4.431 1.846 6.826-.925 1.609-2.609 2.511-4.341 2.511z" fill="#6583fe"/></g></g><g><g><path d="m32.35 225.548c-.851 0-1.712-.217-2.501-.674l-.099-.057c-2.39-1.384-3.205-4.443-1.82-6.833 1.384-2.389 4.442-3.206 6.832-1.821l.099.057c2.39 1.384 3.205 4.443 1.82 6.833-.927 1.601-2.606 2.495-4.331 2.495z" fill="#6583fe"/></g><g><path d="m57.251 239.925c-.845 0-1.7-.214-2.485-.665l-.099-.057c-2.395-1.375-3.221-4.431-1.846-6.826 1.376-2.395 4.431-3.222 6.826-1.846l.099.057c2.395 1.375 3.221 4.431 1.846 6.826-.925 1.609-2.609 2.511-4.341 2.511z" fill="#6583fe"/></g></g><g><g><path d="m57.162 225.548c-1.726 0-3.404-.895-4.331-2.495-1.385-2.389-.569-5.448 1.82-6.833l.099-.057c2.391-1.384 5.449-.568 6.832 1.821 1.385 2.389.569 5.448-1.82 6.833l-.099.057c-.789.457-1.65.674-2.501.674z" fill="#6583fe"/></g><g><path d="m32.261 239.925c-1.732 0-3.416-.901-4.341-2.511-1.375-2.395-.549-5.451 1.846-6.826l.099-.057c2.396-1.376 5.451-.548 6.826 1.846 1.375 2.395.549 5.451-1.846 6.826l-.099.057c-.785.45-1.642.665-2.485.665z" fill="#6583fe"/></g></g><g><g><path d="m57.162 225.548c-1.726 0-3.404-.895-4.331-2.495-1.385-2.389-.569-5.448 1.82-6.833l.099-.057c2.391-1.384 5.449-.568 6.832 1.821 1.385 2.389.569 5.448-1.82 6.833l-.099.057c-.789.457-1.65.674-2.501.674z" fill="#6583fe"/></g><g><path d="m32.261 239.925c-1.732 0-3.416-.901-4.341-2.511-1.375-2.395-.549-5.451 1.846-6.826l.099-.057c2.396-1.376 5.451-.548 6.826 1.846 1.375 2.395.549 5.451-1.846 6.826l-.099.057c-.785.45-1.642.665-2.485.665z" fill="#6583fe"/></g></g><g><g><path d="m44.756 218.387c-2.762 0-5-2.239-5-5v-.114c0-2.761 2.238-5 5-5s5 2.239 5 5v.114c0 2.761-2.238 5-5 5z" fill="#6583fe"/></g><g><path d="m44.756 247.141c-2.762 0-5-2.239-5-5v-.114c0-2.761 2.238-5 5-5s5 2.239 5 5v.114c0 2.761-2.238 5-5 5z" fill="#6583fe"/></g></g></g></g></g></svg>