<svg id="Capa_1" enable-background="new 0 0 512 512" height="512" viewBox="0 0 512 512" width="512" xmlns="http://www.w3.org/2000/svg" xmlns:xlink="http://www.w3.org/1999/xlink"><linearGradient id="SVGID_1_" gradientUnits="userSpaceOnUse" x1="53.922" x2="458.078" y1="256" y2="256"><stop offset="0" stop-color="#d2deff" stop-opacity="0"/><stop offset="1" stop-color="#b7c5ff"/></linearGradient><g><g><path d="m392.278 210.037c-.343-33.611 36.219-56.57 53.692-81.591 24.774-35.475 10.716-69.941-34.716-75.657-17.862-2.247-35.788 2.238-53.464.227-36.687-4.172-34.053-54.421-76.002-52.985-42.481 1.454-47.067 34.144-55.64 69.056-7.729 31.474-29.232 26.798-53.536 12.45-83.043-49.026-159.737 93.47-93.756 148.71 29.39 24.605 70.853 30.91 107.354 41.663 28.957 8.53 60.301 21.401 80.573 44.693 25.108 28.849 15.143 60.534-4.919 88.614-16.983 23.77-33.44 59.704-11.462 85.844 50.216 59.725 136.311-22.822 171.378-67.072 39.817-50.243 27.434-116.28-8.234-166.106-10.317-14.412-21.087-30.121-21.268-47.846z" fill="url(#SVGID_1_)"/></g><g><g><path d="m413.427 188.51c-.182-4.772-3.707-8.737-8.421-9.5-7.525-1.218-14.766-2.525-21.756-3.896v-86.374c0-22.09-17.91-40-40-40h-174.5c-22.09 0-40 17.91-40 40v86.374c-6.99 1.371-14.231 2.679-21.756 3.896-4.714.763-8.239 4.728-8.421 9.5-.941 24.703-.854 100.39 30.177 166.206v108.544c0 22.09 17.91 40 40 40h174.5c22.09 0 40-17.91 40-40v-108.544c31.031-65.816 31.117-141.503 30.177-166.206z" fill="#2626bc" opacity=".1"/><g><path d="m383.25 64.74v374.52c0 22.09-17.91 40-40 40h-174.5c-22.09 0-40-17.91-40-40v-374.52c0-22.09 17.91-40 40-40h174.5c22.09 0 40 17.91 40 40z" fill="#6583fe"/><g fill="#fff"><path d="m128.751 75.989h254.498v173.842h-254.498z"/><path d="m315.1 42.657 7.93-17.916h-134.061l7.93 17.916c3.203 7.238 10.374 11.905 18.289 11.905h81.624c7.915 0 15.085-4.668 18.288-11.905z"/></g></g><g><g><path d="m405.006 155.011c-72.69-11.762-120.325-31.507-144.483-43.69-2.848-1.436-6.197-1.436-9.046 0-24.158 12.183-71.793 31.929-144.483 43.69-4.714.763-8.239 4.728-8.421 9.5-1.613 42.374-.217 234.772 155.237 270.019 1.438.326 2.942.326 4.38 0 155.453-35.247 156.85-227.645 155.237-270.019-.182-4.772-3.707-8.738-8.421-9.5z" fill="#6583fe"/><g fill="#fff"><path d="m256 404.204c-28.198-7.172-51.223-20.676-70.271-41.189-16.882-18.181-30.348-41.882-40.023-70.446-14.265-42.112-17.187-84.843-17.384-110.817 58.342-10.864 100.336-26.452 127.678-39.275 27.345 12.824 69.342 28.412 127.678 39.275-.196 25.975-3.119 68.706-17.384 110.817-9.675 28.564-23.141 52.266-40.022 70.446-19.048 20.511-42.072 34.015-70.272 41.189z"/><path d="m256 142.476c27.345 12.824 69.342 28.412 127.678 39.275-.196 25.975-3.119 68.706-17.384 110.817-9.675 28.564-23.141 52.266-40.022 70.446-19.048 20.512-42.072 34.016-70.272 41.19z"/></g></g><g><g><g><g><path d="m219.927 298.507h-19.871c-2.761 0-5-2.239-5-5v-59.346c0-2.761 2.239-5 5-5h19.871c2.761 0 5 2.239 5 5v59.346c0 2.761-2.238 5-5 5z" fill="#fff"/><path d="m219.927 298.507h-19.871c-2.761 0-5-2.239-5-5v-16.72h29.871v16.72c0 2.761-2.238 5-5 5z" fill="#6583fe"/></g></g><g><g><path d="m264.8 324.507h-19.871c-2.761 0-5-2.239-5-5v-31.346c0-2.761 2.239-5 5-5h19.871c2.761 0 5 2.239 5 5v31.346c0 2.761-2.239 5-5 5z" fill="#6583fe"/><path d="m264.8 324.507h-19.871c-2.761 0-5-2.239-5-5v-16.72h29.871v16.72c0 2.761-2.239 5-5 5z" fill="#fff"/></g></g><g><g><path d="m309.672 318.507h-19.871c-2.761 0-5-2.239-5-5v-87.346c0-2.761 2.239-5 5-5h19.871c2.761 0 5 2.239 5 5v87.346c0 2.761-2.239 5-5 5z" fill="#fff"/><path d="m309.672 318.507h-19.871c-2.761 0-5-2.239-5-5v-16.72h29.871v16.72c0 2.761-2.239 5-5 5z" fill="#6583fe"/><g fill="#2626bc"><path d="m418.423 164.32c-.271-7.115-5.577-13.105-12.618-14.245-73.445-11.884-121.139-32.179-143.03-43.219-4.241-2.139-9.306-2.14-13.549 0-11.018 5.556-23.369 10.897-36.709 15.874-2.587.965-3.902 3.845-2.937 6.432.964 2.586 3.843 3.903 6.432 2.937 13.683-5.104 26.373-10.593 37.717-16.314 1.422-.717 3.121-.717 4.543 0 22.407 11.3 71.163 32.063 145.936 44.162 2.356.381 4.133 2.38 4.224 4.754 1.453 38.184.989 230.412-151.345 264.952-.709.16-1.461.161-2.17 0-152.338-34.541-152.8-226.769-151.346-264.953.09-2.374 1.866-4.373 4.223-4.754 28.306-4.581 55.373-10.791 80.448-18.46 2.641-.808 4.126-3.603 3.319-6.244-.808-2.641-3.604-4.126-6.244-3.319-16.382 5.01-33.653 9.373-51.566 13.069v-80.252c0-19.299 15.701-35 35-35h174.5c19.299 0 35 15.701 35 35v58.7c0 2.761 2.238 5 5 5s5-2.239 5-5v-58.7c0-24.813-20.187-45-45-45h-174.5c-24.813 0-45 20.187-45 45v82.234c-5.796 1.099-11.64 2.144-17.555 3.101-7.041 1.14-12.348 7.13-12.619 14.245-.859 22.554-.729 81.294 18.979 139.477 3.322 9.806 7.064 19.136 11.194 27.995v107.468c0 24.813 20.187 45 45 45h174.5c24.813 0 45-20.187 45-45v-107.469c4.13-8.859 7.873-18.189 11.194-27.995 19.707-58.18 19.838-116.921 18.979-139.476zm-40.173 274.94c0 19.299-15.701 35-35 35h-174.5c-19.299 0-35-15.701-35-35v-88.29c7.748 13.319 16.535 25.31 26.332 35.86 24.643 26.539 55.806 44.228 92.624 52.576 1.078.244 2.186.366 3.294.366 1.109 0 2.218-.122 3.296-.367 36.816-8.348 67.979-26.037 92.623-52.575 9.796-10.55 18.583-22.541 26.331-35.86z"/><path d="m209.992 204.448c-2.761 0-5 2.239-5 5v14.713h-4.936c-5.514 0-10 4.486-10 10v59.346c0 5.514 4.486 10 10 10h4.936v14.713c0 2.761 2.239 5 5 5s5-2.239 5-5v-14.713h4.936c5.514 0 10-4.486 10-10v-59.346c0-5.514-4.486-10-10-10h-4.936v-14.713c0-2.761-2.239-5-5-5zm9.942 89.058h-19.877v-59.346h19.871z"/><path d="m254.864 234.448c-2.761 0-5 2.239-5 5v38.713h-4.936c-5.514 0-10 4.486-10 10v31.346c0 5.514 4.486 10 10 10h4.936v8.713c0 2.761 2.239 5 5 5s5-2.239 5-5v-8.713h4.936c5.514 0 10-4.486 10-10v-31.346c0-5.514-4.486-10-10-10h-4.936v-38.713c0-2.761-2.239-5-5-5zm9.943 85.058h-19.878v-31.346h19.871z"/><path d="m299.736 196.448c-2.761 0-5 2.239-5 5v14.713h-4.936c-5.514 0-10 4.486-10 10v87.346c0 5.514 4.486 10 10 10h4.936v14.713c0 2.761 2.239 5 5 5s5-2.239 5-5v-14.713h4.936c5.514 0 10-4.486 10-10v-87.346c0-5.514-4.486-10-10-10h-4.936v-14.713c0-2.761-2.238-5-5-5zm9.943 117.058h-19.878v-87.346h19.871z"/></g></g></g></g></g></g><g><path d="m327.463 104.332 10.532-12.996c2.001-2.469 5.768-2.469 7.769 0l10.532 12.996c2.649 3.269.323 8.148-3.884 8.148h-21.064c-4.207 0-6.534-4.879-3.885-8.148z" fill="#6583fe"/></g></g><g><path d="m435.811 140.101c-1.279 0-2.56-.488-3.535-1.464l-4.965-4.964-4.965 4.964c-1.951 1.952-5.119 1.952-7.07 0-1.953-1.953-1.953-5.119 0-7.071l8.5-8.5c1.951-1.952 5.119-1.952 7.07 0l8.5 8.5c1.953 1.953 1.953 5.119 0 7.071-.976.975-2.256 1.464-3.535 1.464z" fill="#6583fe"/></g><g><path d="m106.82 63.812c-1.28 0-2.559-.488-3.536-1.464l-4.964-4.964-4.964 4.964c-1.953 1.952-5.118 1.952-7.071 0-1.953-1.953-1.953-5.119 0-7.071l8.5-8.5c1.953-1.952 5.118-1.952 7.071 0l8.5 8.5c1.953 1.953 1.953 5.119 0 7.071-.977.975-2.256 1.464-3.536 1.464z" fill="#6583fe"/></g><g><path d="m100.072 367.867c-1.28 0-2.559-.488-3.536-1.464l-4.964-4.964-4.964 4.964c-1.953 1.952-5.118 1.952-7.071 0-1.953-1.953-1.953-5.119 0-7.071l8.5-8.5c1.953-1.952 5.118-1.952 7.071 0l8.5 8.5c1.953 1.953 1.953 5.119 0 7.071-.977.975-2.256 1.464-3.536 1.464z" fill="#6583fe"/></g><g><g><g><path d="m68.17 308.046c-.854 0-1.719-.219-2.51-.68l-.098-.057c-2.387-1.389-3.195-4.45-1.806-6.836 1.389-2.387 4.45-3.195 6.836-1.806l.098.057c2.387 1.389 3.195 4.45 1.806 6.836-.928 1.596-2.604 2.486-4.326 2.486z" fill="#6583fe"/></g><g><path d="m93.072 322.423c-.851 0-1.712-.217-2.501-.674l-.099-.057c-2.39-1.384-3.205-4.443-1.821-6.833 1.385-2.39 4.443-3.205 6.833-1.821l.099.057c2.39 1.384 3.205 4.443 1.821 6.833-.927 1.601-2.606 2.495-4.332 2.495z" fill="#6583fe"/></g></g><g><g><path d="m68.17 308.046c-.854 0-1.719-.219-2.51-.68l-.098-.057c-2.387-1.389-3.195-4.45-1.806-6.836 1.389-2.387 4.45-3.195 6.836-1.806l.098.057c2.387 1.389 3.195 4.45 1.806 6.836-.928 1.596-2.604 2.486-4.326 2.486z" fill="#6583fe"/></g><g><path d="m93.072 322.423c-.851 0-1.712-.217-2.501-.674l-.099-.057c-2.39-1.384-3.205-4.443-1.821-6.833 1.385-2.39 4.443-3.205 6.833-1.821l.099.057c2.39 1.384 3.205 4.443 1.821 6.833-.927 1.601-2.606 2.495-4.332 2.495z" fill="#6583fe"/></g></g><g><g><path d="m92.983 308.046c-1.726 0-3.404-.895-4.332-2.495-1.384-2.389-.569-5.448 1.821-6.833l.099-.057c2.391-1.384 5.448-.568 6.833 1.821 1.384 2.389.569 5.448-1.821 6.833l-.099.057c-.788.457-1.651.674-2.501.674z" fill="#6583fe"/></g><g><path d="m68.082 322.423c-1.722 0-3.397-.89-4.326-2.486-1.389-2.386-.581-5.447 1.806-6.836l.098-.057c2.387-1.389 5.447-.581 6.836 1.806 1.389 2.386.581 5.447-1.806 6.836l-.098.057c-.791.461-1.656.68-2.51.68z" fill="#6583fe"/></g></g><g><g><path d="m92.983 308.046c-1.726 0-3.404-.895-4.332-2.495-1.384-2.389-.569-5.448 1.821-6.833l.099-.057c2.391-1.384 5.448-.568 6.833 1.821 1.384 2.389.569 5.448-1.821 6.833l-.099.057c-.788.457-1.651.674-2.501.674z" fill="#6583fe"/></g><g><path d="m68.082 322.423c-1.722 0-3.397-.89-4.326-2.486-1.389-2.386-.581-5.447 1.806-6.836l.098-.057c2.387-1.389 5.447-.581 6.836 1.806 1.389 2.386.581 5.447-1.806 6.836l-.098.057c-.791.461-1.656.68-2.51.68z" fill="#6583fe"/></g></g><g><g><path d="m80.577 300.885c-2.761 0-5-2.239-5-5v-.114c0-2.761 2.239-5 5-5s5 2.239 5 5v.114c0 2.761-2.239 5-5 5z" fill="#6583fe"/></g><g><path d="m80.577 329.639c-2.761 0-5-2.239-5-5v-.114c0-2.761 2.239-5 5-5s5 2.239 5 5v.114c0 2.761-2.239 5-5 5z" fill="#6583fe"/></g></g></g><g><g><g><path d="m412.904 408.319c-.845 0-1.7-.214-2.485-.665l-.099-.057c-2.395-1.375-3.221-4.431-1.846-6.826s4.431-3.221 6.826-1.846l.099.057c2.395 1.375 3.221 4.431 1.846 6.826-.925 1.61-2.608 2.511-4.341 2.511z" fill="#6583fe"/></g><g><path d="m437.806 422.696c-.851 0-1.712-.217-2.501-.674l-.099-.057c-2.39-1.384-3.205-4.443-1.82-6.833 1.384-2.389 4.441-3.205 6.832-1.821l.099.057c2.39 1.384 3.205 4.443 1.82 6.833-.927 1.601-2.606 2.495-4.331 2.495z" fill="#6583fe"/></g></g><g><g><path d="m412.904 408.319c-.845 0-1.7-.214-2.485-.665l-.099-.057c-2.395-1.375-3.221-4.431-1.846-6.826s4.431-3.221 6.826-1.846l.099.057c2.395 1.375 3.221 4.431 1.846 6.826-.925 1.61-2.608 2.511-4.341 2.511z" fill="#6583fe"/></g><g><path d="m437.806 422.696c-.851 0-1.712-.217-2.501-.674l-.099-.057c-2.39-1.384-3.205-4.443-1.82-6.833 1.384-2.389 4.441-3.205 6.832-1.821l.099.057c2.39 1.384 3.205 4.443 1.82 6.833-.927 1.601-2.606 2.495-4.331 2.495z" fill="#6583fe"/></g></g><g><g><path d="m437.717 408.319c-1.732 0-3.416-.901-4.341-2.511-1.375-2.395-.549-5.451 1.846-6.826l.099-.057c2.397-1.376 5.45-.549 6.826 1.846 1.375 2.395.549 5.451-1.846 6.826l-.099.057c-.785.451-1.641.665-2.485.665z" fill="#6583fe"/></g><g><path d="m412.815 422.696c-1.726 0-3.404-.895-4.331-2.495-1.385-2.389-.569-5.448 1.82-6.833l.099-.057c2.391-1.384 5.449-.568 6.832 1.821 1.385 2.389.569 5.448-1.82 6.833l-.099.057c-.789.457-1.65.674-2.501.674z" fill="#6583fe"/></g></g><g><g><path d="m437.717 408.319c-1.732 0-3.416-.901-4.341-2.511-1.375-2.395-.549-5.451 1.846-6.826l.099-.057c2.397-1.376 5.45-.549 6.826 1.846 1.375 2.395.549 5.451-1.846 6.826l-.099.057c-.785.451-1.641.665-2.485.665z" fill="#6583fe"/></g><g><path d="m412.815 422.696c-1.726 0-3.404-.895-4.331-2.495-1.385-2.389-.569-5.448 1.82-6.833l.099-.057c2.391-1.384 5.449-.568 6.832 1.821 1.385 2.389.569 5.448-1.82 6.833l-.099.057c-.789.457-1.65.674-2.501.674z" fill="#6583fe"/></g></g><g><g><path d="m425.311 401.159c-2.762 0-5-2.239-5-5v-.114c0-2.761 2.238-5 5-5s5 2.239 5 5v.114c0 2.761-2.239 5-5 5z" fill="#6583fe"/></g><g><path d="m425.311 429.912c-2.762 0-5-2.239-5-5v-.114c0-2.761 2.238-5 5-5s5 2.239 5 5v.114c0 2.761-2.239 5-5 5z" fill="#6583fe"/></g></g></g></g></g></svg>