<svg id="Capa_1" enable-background="new 0 0 512 512" height="512" viewBox="0 0 512 512" width="512" xmlns="http://www.w3.org/2000/svg" xmlns:xlink="http://www.w3.org/1999/xlink"><linearGradient id="SVGID_1_" gradientUnits="userSpaceOnUse" x1="52.119" x2="456.275" y1="256" y2="256"><stop offset="0" stop-color="#d2deff" stop-opacity="0"/><stop offset="1" stop-color="#b7c5ff"/></linearGradient><g><g><path d="m390.475 210.037c-.343-33.611 36.219-56.57 53.692-81.591 24.774-35.475 10.716-69.941-34.716-75.657-17.862-2.247-35.788 2.238-53.464.227-36.687-4.172-34.053-54.421-76.002-52.985-42.481 1.454-47.067 34.144-55.64 69.056-7.729 31.474-29.232 26.798-53.536 12.45-83.043-49.026-159.737 93.47-93.756 148.71 29.39 24.605 70.853 30.91 107.354 41.663 28.957 8.53 60.301 21.401 80.573 44.693 25.108 28.849 15.143 60.534-4.919 88.614-16.983 23.77-33.44 59.704-11.462 85.844 50.216 59.725 136.311-22.822 171.378-67.072 39.817-50.243 27.434-116.28-8.234-166.106-10.317-14.412-21.087-30.121-21.268-47.846z" fill="url(#SVGID_1_)"/></g><g><g><g fill="#2626bc" opacity=".1"><path d="m225.881 247.223h-60.15c-5.47 0-9.9 4.43-9.9 9.9v217.98c0 5.47 4.43 9.9 9.9 9.9h60.15c5.47 0 9.9-4.43 9.9-9.9v-217.98c0-5.47-4.43-9.9-9.9-9.9z"/><path d="m329.991 327.223h-60.15c-5.47 0-9.9 4.43-9.9 9.9v137.98c0 5.47 4.43 9.9 9.9 9.9h60.15c5.47 0 9.9-4.43 9.9-9.9v-137.98c0-5.47-4.43-9.9-9.9-9.9z"/><path d="m121.762 395.218h-60.149c-5.469 0-9.902 4.433-9.902 9.902v69.986c0 5.469 4.433 9.902 9.902 9.902h60.149c5.469 0 9.902-4.433 9.902-9.902v-69.986c0-5.469-4.433-9.902-9.902-9.902z"/><path d="m102.481 184.403 9.738-13.711c1.478-2.081 1.478-4.868 0-6.949l-9.738-13.711c-1.125-1.584-2.948-2.526-4.892-2.526h-59.878c-3.314 0-6 2.686-6 6v27.421c0 3.314 2.686 6 6 6h59.879c1.943.002 3.766-.939 4.891-2.524z"/><path d="m467.544 154.473h-18.972c-5.547-36.943-34.826-66.222-71.77-71.77v-18.971c0-7.039-5.706-12.745-12.745-12.745s-12.745 5.706-12.745 12.745v18.972c-36.943 5.547-66.222 34.826-71.77 71.77h-18.972c-7.039 0-12.745 5.706-12.745 12.745s5.706 12.745 12.745 12.745h18.972c5.547 36.943 34.826 66.222 71.77 71.77v18.972c0 7.038 5.704 12.743 12.742 12.745v191.654c0 5.47 4.44 9.91 9.91 9.91h60.14c5.47 0 9.91-4.44 9.91-9.91v-277.73c2.102-5.555 3.652-11.378 4.558-17.412h18.972c7.039 0 12.745-5.706 12.745-12.745s-5.706-12.745-12.745-12.745zm-43.51 12.75h-23.267c0-.002 0-.003 0-.005 0-20.274-16.435-36.709-36.709-36.709s-36.709 16.435-36.709 36.709c0 20.273 16.433 36.707 36.706 36.709v23.267c-33.069-.002-59.973-26.906-59.973-59.976 0-33.071 26.905-59.976 59.976-59.976s59.976 26.905 59.976 59.976z"/></g><g><g><g><g><g><path d="m235.781 233.123v217.98c0 5.47-4.43 9.9-9.9 9.9h-60.15c-5.47 0-9.9-4.43-9.9-9.9v-217.98c0-5.47 4.43-9.9 9.9-9.9h60.15c5.47 0 9.9 4.43 9.9 9.9z" fill="#fff"/><path d="m185.831 253.213h19.95v177.79h-19.95z" fill="#6583fe"/></g><g><path d="m339.891 313.123v137.98c0 5.47-4.43 9.9-9.9 9.9h-60.15c-5.47 0-9.9-4.43-9.9-9.9v-137.98c0-5.47 4.43-9.9 9.9-9.9h60.15c5.47 0 9.9 4.43 9.9 9.9z" fill="#fff"/><path d="m251.024 372.136h97.79v19.953h-97.79z" fill="#6583fe" transform="matrix(0 1 -1 0 682.031 82.194)"/></g><g><path d="m444.015 153.123v297.98c0 5.47-4.44 9.91-9.91 9.91h-60.14c-5.47 0-9.91-4.44-9.91-9.91v-297.98c0-5.47 4.44-9.9 9.91-9.9h60.14c5.47 0 9.91 4.43 9.91 9.9z" fill="#fff"/><path d="m394.055 173.213h19.96v257.79h-19.96z" fill="#6583fe"/></g></g><g><path d="m121.762 461.008h-60.149c-5.469 0-9.902-4.433-9.902-9.902v-69.986c0-5.469 4.433-9.902 9.902-9.902h60.149c5.469 0 9.902 4.433 9.902 9.902v69.986c0 5.469-4.433 9.902-9.902 9.902z" fill="#6583fe"/><path d="m76.792 406.136h29.79v19.953h-29.79z" fill="#fff" transform="matrix(0 1 -1 0 507.8 324.425)"/></g></g><g><circle cx="364.058" cy="143.218" fill="#6583fe" r="36.709"/><circle cx="364.058" cy="143.218" fill="#fff" r="16.683"/><path d="m467.544 130.473h-18.972c-5.547-36.943-34.826-66.222-71.77-71.77v-18.971c0-7.039-5.706-12.745-12.745-12.745s-12.745 5.706-12.745 12.745v18.972c-36.943 5.547-66.222 34.826-71.77 71.77h-18.972c-7.039 0-12.745 5.706-12.745 12.745s5.706 12.745 12.745 12.745h18.972c5.547 36.943 34.826 66.222 71.77 71.77v18.972c0 7.039 5.706 12.745 12.745 12.745s12.745-5.706 12.745-12.745v-18.972c36.943-5.547 66.222-34.826 71.77-71.77h18.972c7.039 0 12.745-5.706 12.745-12.745s-5.706-12.746-12.745-12.746zm-103.486 72.721c-33.071 0-59.976-26.905-59.976-59.976s26.905-59.976 59.976-59.976 59.976 26.905 59.976 59.976-26.906 59.976-59.976 59.976z" fill="#6583fe"/></g></g><path d="m97.59 162.929h-59.879c-3.314 0-6-2.686-6-6v-27.421c0-3.314 2.686-6 6-6h59.879c1.943 0 3.766.941 4.892 2.526l9.738 13.711c1.478 2.081 1.478 4.868 0 6.949l-9.738 13.711c-1.126 1.582-2.949 2.524-4.892 2.524z" fill="#fff"/><g fill="#2626bc"><path d="m225.877 218.218h-15.477c-2.762 0-5 2.239-5 5s2.238 5 5 5h15.478c2.703 0 4.902 2.199 4.902 4.902v217.986c0 2.703-2.199 4.902-4.902 4.902h-60.148c-2.703 0-4.902-2.199-4.902-4.902v-217.986c0-2.703 2.199-4.902 4.902-4.902h15.57c2.762 0 5-2.239 5-5s-2.238-5-5-5h-15.57c-8.217 0-14.902 6.685-14.902 14.902v217.986c0 8.217 6.686 14.902 14.902 14.902h60.148c8.217 0 14.902-6.685 14.902-14.902v-217.986c0-8.217-6.686-14.902-14.903-14.902z"/><path d="m329.993 298.218h-60.148c-8.217 0-14.902 6.685-14.902 14.902v137.986c0 8.217 6.686 14.902 14.902 14.902h60.148c8.217 0 14.902-6.685 14.902-14.902v-137.986c0-8.217-6.686-14.902-14.902-14.902zm4.902 152.888c0 2.703-2.199 4.902-4.902 4.902h-60.148c-2.703 0-4.902-2.199-4.902-4.902v-137.986c0-2.703 2.199-4.902 4.902-4.902h60.148c2.703 0 4.902 2.199 4.902 4.902z"/><path d="m121.762 366.218h-60.149c-8.217 0-14.901 6.685-14.901 14.902v69.986c0 8.217 6.685 14.902 14.901 14.902h60.149c8.217 0 14.901-6.685 14.901-14.902v-69.986c.001-8.217-6.684-14.902-14.901-14.902zm4.902 84.888c0 2.703-2.199 4.902-4.901 4.902h-60.15c-2.702 0-4.901-2.199-4.901-4.902v-69.986c0-2.703 2.199-4.902 4.901-4.902h60.149c2.702 0 4.901 2.199 4.901 4.902v69.986z"/><path d="m467.544 125.473h-14.77c-3.481-17.513-11.993-33.409-24.778-46.194s-28.682-21.296-46.194-24.778v-14.77c0-9.784-7.96-17.745-17.744-17.745-9.785 0-17.745 7.96-17.745 17.745v14.77c-17.513 3.481-33.409 11.993-46.194 24.778s-21.296 28.682-24.777 46.194h-14.77c-9.785 0-17.745 7.96-17.745 17.745s7.96 17.745 17.745 17.745h14.77c3.481 17.512 11.992 33.409 24.777 46.194s28.682 21.296 46.194 24.778v14.77c0 9.784 7.96 17.745 17.745 17.745 9.784 0 17.744-7.96 17.744-17.745v-14.77c17.513-3.481 33.409-11.993 46.194-24.778 4.128-4.128 7.803-8.584 11.015-13.311v257.26c0 2.703-2.199 4.902-4.902 4.902h-60.149c-2.703 0-4.902-2.199-4.902-4.902v-163.314c0-2.761-2.238-5-5-5s-5 2.239-5 5v163.313c0 8.217 6.686 14.902 14.902 14.902h60.148c8.217 0 14.902-6.685 14.902-14.902v-276.587c0-.044-.012-.085-.013-.129 1.593-4.347 2.863-8.829 3.777-13.426h14.77c9.784 0 17.744-7.96 17.744-17.745.001-9.784-7.959-17.745-17.744-17.745zm0 25.49h-18.972c-2.475 0-4.577 1.81-4.944 4.257-5.194 34.589-32.979 62.374-67.568 67.568-2.447.367-4.258 2.47-4.258 4.944v18.972c0 4.271-3.474 7.745-7.744 7.745s-7.745-3.474-7.745-7.745v-18.972c0-2.475-1.811-4.577-4.258-4.944-34.589-5.194-62.374-32.979-67.567-67.567-.367-2.448-2.47-4.258-4.944-4.258h-18.972c-4.271 0-7.745-3.475-7.745-7.745s3.475-7.745 7.745-7.745h18.972c2.475 0 4.577-1.811 4.944-4.258 5.193-34.588 32.979-62.373 67.567-67.567 2.447-.367 4.258-2.47 4.258-4.944v-18.972c0-4.271 3.475-7.745 7.745-7.745s7.744 3.474 7.744 7.745v18.972c0 2.475 1.811 4.577 4.258 4.944 34.589 5.194 62.374 32.979 67.568 67.568.367 2.447 2.47 4.257 4.944 4.257h18.972c4.271 0 7.744 3.474 7.744 7.745s-3.473 7.745-7.744 7.745z"/><path d="m364.058 78.242c-35.828 0-64.977 29.148-64.977 64.976s29.148 64.976 64.977 64.976 64.976-29.148 64.976-64.976-29.148-64.976-64.976-64.976zm-54.976 64.976c0-30.313 24.662-54.976 54.977-54.976 28.627 0 52.203 21.998 54.738 49.976h-13.339c-2.479-20.649-20.094-36.709-41.399-36.709-22.998 0-41.709 18.71-41.709 41.709 0 21.305 16.061 38.92 36.709 41.399v13.339c-27.98-2.535-49.977-26.111-49.977-54.738zm54.976 31.709c-17.484 0-31.709-14.225-31.709-31.709s14.225-31.709 31.709-31.709 31.709 14.225 31.709 31.709c0 17.485-14.225 31.709-31.709 31.709zm5 23.029v-13.339c19.007-2.282 34.116-17.391 36.399-36.399h13.339c-2.386 26.33-23.408 47.352-49.738 49.738z"/><path d="m37.711 167.929h59.878c3.557 0 6.909-1.731 8.968-4.63l9.739-13.711c2.706-3.81 2.706-8.929 0-12.739l-9.739-13.71c-2.059-2.899-5.411-4.63-8.968-4.63h-59.878c-6.065 0-11 4.935-11 11v27.421c0 6.064 4.935 10.999 11 10.999zm-1-38.422c0-.551.448-1 1-1h59.878c.323 0 .628.157.815.421l9.739 13.71c.246.347.246.812 0 1.158l-9.739 13.711c-.188.263-.492.42-.815.42h-59.878c-.552 0-1-.449-1-1z"/><path d="m215.906 148.218h11.598c2.762 0 5-2.239 5-5s-2.238-5-5-5h-11.598c-2.762 0-5 2.239-5 5s2.238 5 5 5z"/><path d="m178.234 148.218h11.597c2.762 0 5-2.239 5-5s-2.238-5-5-5h-11.597c-2.762 0-5 2.239-5 5s2.238 5 5 5z"/><path d="m157.159 143.218c0-2.761-2.238-5-5-5h-11.598c-2.762 0-5 2.239-5 5s2.238 5 5 5h11.598c2.761 0 5-2.239 5-5z"/><path d="m33.105 197.03h18.582c2.762 0 5-2.239 5-5s-2.238-5-5-5h-18.582c-2.762 0-5 2.239-5 5s2.238 5 5 5z"/><path d="m33.105 217.412h58.582c2.762 0 5-2.239 5-5s-2.238-5-5-5h-58.582c-2.762 0-5 2.239-5 5s2.238 5 5 5z"/><path d="m96.687 232.793c0-2.761-2.238-5-5-5h-58.582c-2.762 0-5 2.239-5 5s2.238 5 5 5h58.582c2.762 0 5-2.238 5-5z"/></g></g><g opacity=".1"><g><path d="m227.503 172.218h-11.598c-2.761 0-5-2.239-5-5s2.239-5 5-5h11.598c2.761 0 5 2.239 5 5s-2.238 5-5 5z" fill="#2626bc"/></g><g><path d="m189.831 172.218h-11.598c-2.761 0-5-2.239-5-5s2.239-5 5-5h11.598c2.761 0 5 2.239 5 5s-2.239 5-5 5z" fill="#2626bc"/></g><g><path d="m152.159 172.218h-11.598c-2.761 0-5-2.239-5-5s2.239-5 5-5h11.598c2.761 0 5 2.239 5 5s-2.239 5-5 5z" fill="#2626bc"/></g><g><g><g><path d="m51.688 221.03h-18.583c-2.761 0-5-2.239-5-5s2.239-5 5-5h18.583c2.761 0 5 2.239 5 5s-2.239 5-5 5z" fill="#2626bc"/></g><g><path d="m91.688 241.412h-58.583c-2.761 0-5-2.239-5-5s2.239-5 5-5h58.583c2.761 0 5 2.239 5 5s-2.239 5-5 5z" fill="#2626bc"/></g><g><path d="m91.688 261.793h-58.583c-2.761 0-5-2.239-5-5s2.239-5 5-5h58.583c2.761 0 5 2.239 5 5 0 2.762-2.239 5-5 5z" fill="#2626bc"/></g></g></g></g></g><g><path d="m256.327 107.36c-1.279 0-2.56-.488-3.535-1.464l-4.965-4.964-4.965 4.964c-1.951 1.952-5.119 1.952-7.07 0-1.953-1.953-1.953-5.119 0-7.071l8.5-8.5c1.951-1.952 5.119-1.952 7.07 0l8.5 8.5c1.953 1.953 1.953 5.119 0 7.071-.976.976-2.256 1.464-3.535 1.464z" fill="#6583fe"/></g><g><path d="m289.942 261.043c-1.279 0-2.56-.488-3.535-1.464l-4.965-4.964-4.965 4.964c-1.951 1.952-5.119 1.952-7.07 0-1.953-1.953-1.953-5.119 0-7.071l8.5-8.5c1.951-1.952 5.119-1.952 7.07 0l8.5 8.5c1.953 1.953 1.953 5.119 0 7.071-.976.976-2.256 1.464-3.535 1.464z" fill="#6583fe"/></g><g><path d="m195.569 75.897c-1.279 0-2.56-.488-3.535-1.464l-4.965-4.964-4.965 4.964c-1.951 1.952-5.119 1.952-7.07 0-1.953-1.953-1.953-5.119 0-7.071l8.5-8.5c1.951-1.952 5.119-1.952 7.07 0l8.5 8.5c1.953 1.953 1.953 5.119 0 7.071-.976.976-2.256 1.464-3.535 1.464z" fill="#6583fe"/></g><g><g><g><path d="m99.281 307.064c-.851 0-1.712-.217-2.501-.674l-.099-.057c-2.39-1.384-3.205-4.443-1.82-6.833 1.384-2.389 4.442-3.205 6.832-1.821l.099.057c2.39 1.384 3.205 4.443 1.82 6.833-.927 1.6-2.606 2.495-4.331 2.495z" fill="#6583fe"/></g><g><path d="m124.182 321.441c-.851 0-1.712-.217-2.501-.674l-.099-.057c-2.39-1.384-3.205-4.443-1.82-6.833 1.384-2.39 4.442-3.205 6.832-1.821l.099.057c2.39 1.384 3.205 4.443 1.82 6.833-.927 1.6-2.605 2.495-4.331 2.495z" fill="#6583fe"/></g></g><g><g><path d="m99.281 307.064c-.851 0-1.712-.217-2.501-.674l-.099-.057c-2.39-1.384-3.205-4.443-1.82-6.833 1.384-2.389 4.442-3.205 6.832-1.821l.099.057c2.39 1.384 3.205 4.443 1.82 6.833-.927 1.6-2.606 2.495-4.331 2.495z" fill="#6583fe"/></g><g><path d="m124.182 321.441c-.851 0-1.712-.217-2.501-.674l-.099-.057c-2.39-1.384-3.205-4.443-1.82-6.833 1.384-2.39 4.442-3.205 6.832-1.821l.099.057c2.39 1.384 3.205 4.443 1.82 6.833-.927 1.6-2.605 2.495-4.331 2.495z" fill="#6583fe"/></g></g><g><g><path d="m124.093 307.064c-1.726 0-3.404-.895-4.331-2.495-1.385-2.389-.569-5.448 1.82-6.833l.099-.057c2.391-1.384 5.449-.568 6.832 1.821 1.385 2.389.569 5.448-1.82 6.833l-.099.057c-.789.457-1.65.674-2.501.674z" fill="#6583fe"/></g><g><path d="m99.192 321.441c-1.726 0-3.404-.895-4.331-2.495-1.385-2.389-.569-5.448 1.82-6.833l.099-.057c2.392-1.383 5.449-.569 6.832 1.821 1.385 2.389.569 5.448-1.82 6.833l-.099.057c-.789.457-1.651.674-2.501.674z" fill="#6583fe"/></g></g><g><g><path d="m124.093 307.064c-1.726 0-3.404-.895-4.331-2.495-1.385-2.389-.569-5.448 1.82-6.833l.099-.057c2.391-1.384 5.449-.568 6.832 1.821 1.385 2.389.569 5.448-1.82 6.833l-.099.057c-.789.457-1.65.674-2.501.674z" fill="#6583fe"/></g><g><path d="m99.192 321.441c-1.726 0-3.404-.895-4.331-2.495-1.385-2.389-.569-5.448 1.82-6.833l.099-.057c2.392-1.383 5.449-.569 6.832 1.821 1.385 2.389.569 5.448-1.82 6.833l-.099.057c-.789.457-1.651.674-2.501.674z" fill="#6583fe"/></g></g><g><g><path d="m111.687 299.903c-2.762 0-5-2.239-5-5v-.114c0-2.761 2.238-5 5-5s5 2.239 5 5v.114c0 2.761-2.238 5-5 5z" fill="#6583fe"/></g><g><path d="m111.687 328.657c-2.762 0-5-2.239-5-5v-.114c0-2.761 2.238-5 5-5s5 2.239 5 5v.114c0 2.761-2.238 5-5 5z" fill="#6583fe"/></g></g></g><g><g><g><path d="m431.604 46.881c-.857 0-1.727-.221-2.52-.685l-.098-.057c-2.384-1.395-3.186-4.457-1.791-6.841 1.394-2.383 4.458-3.186 6.84-1.791l.098.057c2.384 1.395 3.186 4.457 1.791 6.841-.929 1.59-2.602 2.476-4.32 2.476z" fill="#6583fe"/></g><g><path d="m456.505 61.258c-.857 0-1.727-.221-2.52-.685l-.098-.057c-2.384-1.395-3.186-4.457-1.791-6.841 1.394-2.384 4.458-3.186 6.84-1.791l.098.057c2.384 1.395 3.186 4.457 1.791 6.841-.929 1.59-2.602 2.476-4.32 2.476z" fill="#6583fe"/></g></g><g><g><path d="m431.604 46.881c-.857 0-1.727-.221-2.52-.685l-.098-.057c-2.384-1.395-3.186-4.457-1.791-6.841 1.394-2.383 4.458-3.186 6.84-1.791l.098.057c2.384 1.395 3.186 4.457 1.791 6.841-.929 1.59-2.602 2.476-4.32 2.476z" fill="#6583fe"/></g><g><path d="m456.505 61.258c-.857 0-1.727-.221-2.52-.685l-.098-.057c-2.384-1.395-3.186-4.457-1.791-6.841 1.394-2.384 4.458-3.186 6.84-1.791l.098.057c2.384 1.395 3.186 4.457 1.791 6.841-.929 1.59-2.602 2.476-4.32 2.476z" fill="#6583fe"/></g></g><g><g><path d="m456.417 46.881c-1.726 0-3.404-.895-4.331-2.495-1.385-2.389-.569-5.448 1.82-6.833l.099-.057c2.392-1.383 5.448-.568 6.832 1.821 1.385 2.389.569 5.448-1.82 6.833l-.099.057c-.789.457-1.65.674-2.501.674z" fill="#6583fe"/></g><g><path d="m431.516 61.258c-1.718 0-3.391-.886-4.32-2.476-1.395-2.384-.593-5.446 1.791-6.841l.098-.057c2.381-1.393 5.446-.593 6.84 1.791 1.395 2.384.593 5.446-1.791 6.841l-.098.057c-.793.464-1.662.685-2.52.685z" fill="#6583fe"/></g></g><g><g><path d="m456.417 46.881c-1.726 0-3.404-.895-4.331-2.495-1.385-2.389-.569-5.448 1.82-6.833l.099-.057c2.392-1.383 5.448-.568 6.832 1.821 1.385 2.389.569 5.448-1.82 6.833l-.099.057c-.789.457-1.65.674-2.501.674z" fill="#6583fe"/></g><g><path d="m431.516 61.258c-1.718 0-3.391-.886-4.32-2.476-1.395-2.384-.593-5.446 1.791-6.841l.098-.057c2.381-1.393 5.446-.593 6.84 1.791 1.395 2.384.593 5.446-1.791 6.841l-.098.057c-.793.464-1.662.685-2.52.685z" fill="#6583fe"/></g></g><g><g><path d="m444.011 39.72c-2.762 0-5-2.239-5-5v-.114c0-2.761 2.238-5 5-5s5 2.239 5 5v.114c0 2.761-2.238 5-5 5z" fill="#6583fe"/></g><g><path d="m444.011 68.474c-2.762 0-5-2.239-5-5v-.114c0-2.761 2.238-5 5-5s5 2.239 5 5v.114c0 2.761-2.238 5-5 5z" fill="#6583fe"/></g></g></g></g></g></svg>